<?xml version="1.0" encoding="UTF-8"?>
<svg width="58px" height="58px" viewBox="0 0 58 58" version="1.1" xmlns="http://www.w3.org/2000/svg" xmlns:xlink="http://www.w3.org/1999/xlink">
    <!-- Generator: Sketch 51.3 (57544) - http://www.bohemiancoding.com/sketch -->
    <title>033 - Correcting Code</title>
    <desc>Created with Sketch.</desc>
    <defs></defs>
    <g id="Page-1" stroke="none" stroke-width="1" fill="none" fill-rule="evenodd">
        <g id="033---Correcting-Code" fill-rule="nonzero">
            <path d="M58,2 L58,10 L0,10 L0,2 C0.00329480111,0.896798134 0.896798134,0.00329480111 2,0 L56,0 C57.1032019,0.00329480111 57.9967052,0.896798134 58,2 Z" id="Shape" fill="#2C3E50"></path>
            <path d="M58,8 L58,56 C57.9967052,57.1032019 57.1032019,57.9967052 56,58 L2,58 C0.896798134,57.9967052 0.00329480111,57.1032019 0,56 L0,8 L58,8 Z" id="Shape" fill="#B0D3F0"></path>
            <circle id="Oval" fill="#CC4B4C" cx="4" cy="4" r="1"></circle>
            <circle id="Oval" fill="#F0C419" cx="8" cy="4" r="1"></circle>
            <circle id="Oval" fill="#4FBA6F" cx="12" cy="4" r="1"></circle>
            <path d="M44.96,33.16 L37.96,40.81 C36.6848877,42.2062482 34.8808778,43.0011741 32.99,43.0000013 L32.99,42.68 C32.9900847,40.9707443 33.6284482,39.3231245 34.78,38.06 L42,30.17 L44.96,33.16 Z" id="Shape" fill="#F3D55B"></path>
            <path d="M46.44,31.54 L44.96,33.16 L42,30.17 L43.37,28.68 C43.7548117,28.2579726 44.2960948,28.0125547 44.8671101,28.00121 C45.4381254,27.9898654 45.9887293,28.2135901 46.39,28.62 C47.1838341,29.423776 47.2058502,30.7095171 46.44,31.54 Z" id="Shape" fill="#FF5364"></path>
            <path d="M32,45 C31.5981103,44.9983384 31.2362631,44.7562437 31.081379,44.3853946 C30.926495,44.0145455 31.0086714,43.5870058 31.29,43.3 L32.278,42.3 C32.5280196,42.0392024 32.89927,41.933541 33.2491474,42.0236021 C33.5990247,42.1136633 33.8731193,42.3854415 33.9661463,42.734542 C34.0591734,43.0836424 33.9566664,43.4557762 33.698,43.708 L32.71,44.708 C32.5216087,44.8959195 32.2660902,45.0010059 32,45 Z" id="Shape" fill="#464F5D"></path>
            <path d="M25,19 C24.8028084,18.999847 24.6100634,18.9413972 24.446,18.832 L21.446,16.832 C21.1678449,16.6465268 21.0007756,16.3343211 21.0007756,16 C21.0007756,15.6656789 21.1678449,15.3534732 21.446,15.168 L24.446,13.168 C24.9055009,12.861482 25.526482,12.9854991 25.833,13.445 C26.139518,13.9045009 26.0155009,14.525482 25.556,14.832 L23.8,16 L25.552,17.168 C25.9181979,17.4121763 26.0816901,17.8670772 25.9547105,18.2885023 C25.8277309,18.7099274 25.440138,18.9987809 25,19 Z" id="Shape" fill="#2C3E50"></path>
            <path d="M33,19 C32.5591231,19.0005403 32.1699098,18.7122901 32.0418732,18.290414 C31.9138366,17.868538 32.0771898,17.4125875 32.444,17.168 L34.2,16 L32.448,14.832 C31.9884991,14.525482 31.864482,13.9045009 32.171,13.445 C32.4775181,12.9854991 33.0984991,12.861482 33.558,13.168 L36.558,15.168 C36.8361551,15.3534732 37.0032244,15.6656789 37.0032244,16 C37.0032244,16.3343211 36.8361551,16.6465268 36.558,16.832 L33.558,18.832 C33.3928034,18.942155 33.1985539,19.0006387 33,19 Z" id="Shape" fill="#2C3E50"></path>
            <path d="M28,21 C27.9177273,21.0003241 27.8357438,20.9902442 27.756,20.97 C27.2202929,20.8357826 26.8948099,20.292714 27.029,19.757 L29.029,11.757 C29.1663346,11.2249407 29.7072442,10.9033712 30.2402708,11.0369026 C30.7732973,11.170434 31.0987214,11.7090334 30.969,12.243 L28.969,20.243 C28.8576317,20.6875697 28.4583065,20.9995296 28,21 Z" id="Shape" fill="#2C3E50"></path>
            <path d="M6,25 L4,25 C3.44771525,25 3,24.5522847 3,24 C3,23.4477153 3.44771525,23 4,23 L6,23 C6.55228475,23 7,23.4477153 7,24 C7,24.5522847 6.55228475,25 6,25 Z" id="Shape" fill="#2C3E50"></path>
            <path d="M6,29 L4,29 C3.44771525,29 3,28.5522847 3,28 C3,27.4477153 3.44771525,27 4,27 L6,27 C6.55228475,27 7,27.4477153 7,28 C7,28.5522847 6.55228475,29 6,29 Z" id="Shape" fill="#FF5364"></path>
            <path d="M6,33 L4,33 C3.44771525,33 3,32.5522847 3,32 C3,31.4477153 3.44771525,31 4,31 L6,31 C6.55228475,31 7,31.4477153 7,32 C7,32.5522847 6.55228475,33 6,33 Z" id="Shape" fill="#2C3E50"></path>
            <path d="M6,37 L4,37 C3.44771525,37 3,36.5522847 3,36 C3,35.4477153 3.44771525,35 4,35 L6,35 C6.55228475,35 7,35.4477153 7,36 C7,36.5522847 6.55228475,37 6,37 Z" id="Shape" fill="#FF5364"></path>
            <path d="M6,41 L4,41 C3.44771525,41 3,40.5522847 3,40 C3,39.4477153 3.44771525,39 4,39 L6,39 C6.55228475,39 7,39.4477153 7,40 C7,40.5522847 6.55228475,41 6,41 Z" id="Shape" fill="#2C3E50"></path>
            <path d="M6,45 L4,45 C3.44771525,45 3,44.5522847 3,44 C3,43.4477153 3.44771525,43 4,43 L6,43 C6.55228475,43 7,43.4477153 7,44 C7,44.5522847 6.55228475,45 6,45 Z" id="Shape" fill="#FF5364"></path>
            <path d="M6,49 L4,49 C3.44771525,49 3,48.5522847 3,48 C3,47.4477153 3.44771525,47 4,47 L6,47 C6.55228475,47 7,47.4477153 7,48 C7,48.5522847 6.55228475,49 6,49 Z" id="Shape" fill="#2C3E50"></path>
            <path d="M6,53 L4,53 C3.44771525,53 3,52.5522847 3,52 C3,51.4477153 3.44771525,51 4,51 L6,51 C6.55228475,51 7,51.4477153 7,52 C7,52.5522847 6.55228475,53 6,53 Z" id="Shape" fill="#2C3E50"></path>
            <path d="M10,53 C9.5956041,52.9999137 9.23106595,52.7562725 9.07632202,52.3826546 C8.92157809,52.0090366 9.00709208,51.5789943 9.293,51.293 L10.586,50 L9.293,48.707 C8.91402779,48.3146211 8.91944763,47.6909152 9.30518142,47.3051814 C9.69091522,46.9194476 10.3146211,46.9140278 10.707,47.293 L12.707,49.293 C13.0973819,49.6834999 13.0973819,50.3165001 12.707,50.707 L10.707,52.707 C10.5195073,52.8945494 10.2651948,52.9999434 10,53 Z" id="Shape" fill="#2C3E50"></path>
            <path d="M18,53 L16,53 C15.4477153,53 15,52.5522847 15,52 C15,51.4477153 15.4477153,51 16,51 L18,51 C18.5522847,51 19,51.4477153 19,52 C19,52.5522847 18.5522847,53 18,53 Z" id="Shape" fill="#2C3E50"></path>
            <path d="M28,45 L10,45 C9.44771525,45 9,44.5522847 9,44 C9,43.4477153 9.44771525,43 10,43 L28,43 C28.5522847,43 29,43.4477153 29,44 C29,44.5522847 28.5522847,45 28,45 Z" id="Shape" fill="#FF5364"></path>
            <path d="M14,41 L10,41 C9.44771525,41 9,40.5522847 9,40 C9,39.4477153 9.44771525,39 10,39 L14,39 C14.5522847,39 15,39.4477153 15,40 C15,40.5522847 14.5522847,41 14,41 Z" id="Shape" fill="#2C3E50"></path>
            <path d="M17,37 L10,37 C9.44771525,37 9,36.5522847 9,36 C9,35.4477153 9.44771525,35 10,35 L17,35 C17.5522847,35 18,35.4477153 18,36 C18,36.5522847 17.5522847,37 17,37 Z" id="Shape" fill="#FF5364"></path>
            <path d="M30,33 L10,33 C9.44771525,33 9,32.5522847 9,32 C9,31.4477153 9.44771525,31 10,31 L30,31 C30.5522847,31 31,31.4477153 31,32 C31,32.5522847 30.5522847,33 30,33 Z" id="Shape" fill="#2C3E50"></path>
            <path d="M21,29 L10,29 C9.44771525,29 9,28.5522847 9,28 C9,27.4477153 9.44771525,27 10,27 L21,27 C21.5522847,27 22,27.4477153 22,28 C22,28.5522847 21.5522847,29 21,29 Z" id="Shape" fill="#FF5364"></path>
            <path d="M15,25 L10,25 C9.44771525,25 9,24.5522847 9,24 C9,23.4477153 9.44771525,23 10,23 L15,23 C15.5522847,23 16,23.4477153 16,24 C16,24.5522847 15.5522847,25 15,25 Z" id="Shape" fill="#2C3E50"></path>
            <path d="M54,25 L43,25 C42.4477153,25 42,24.5522847 42,24 C42,23.4477153 42.4477153,23 43,23 L54,23 C54.5522847,23 55,23.4477153 55,24 C55,24.5522847 54.5522847,25 54,25 Z" id="Shape" fill="#2C3E50"></path>
            <path d="M27,25 L21,25 C20.4477153,25 20,24.5522847 20,24 C20,23.4477153 20.4477153,23 21,23 L27,23 C27.5522847,23 28,23.4477153 28,24 C28,24.5522847 27.5522847,25 27,25 Z" id="Shape" fill="#2C3E50"></path>
            <path d="M38,29 L27,29 C26.4477153,29 26,28.5522847 26,28 C26,27.4477153 26.4477153,27 27,27 L38,27 C38.5522847,27 39,27.4477153 39,28 C39,28.5522847 38.5522847,29 38,29 Z" id="Shape" fill="#FF5364"></path>
            <path d="M31,37 L23,37 C22.4477153,37 22,36.5522847 22,36 C22,35.4477153 22.4477153,35 23,35 L31,35 C31.5522847,35 32,35.4477153 32,36 C32,36.5522847 31.5522847,37 31,37 Z" id="Shape" fill="#FF5364"></path>
            <path d="M54,37 L48,37 C47.4477153,37 47,36.5522847 47,36 C47,35.4477153 47.4477153,35 48,35 L54,35 C54.5522847,35 55,35.4477153 55,36 C55,36.5522847 54.5522847,37 54,37 Z" id="Shape" fill="#FF5364"></path>
            <path d="M28,41 L18,41 C17.4477153,41 17,40.5522847 17,40 C17,39.4477153 17.4477153,39 18,39 L28,39 C28.5522847,39 29,39.4477153 29,40 C29,40.5522847 28.5522847,41 28,41 Z" id="Shape" fill="#2C3E50"></path>
            <path d="M54,41 L44,41 C43.4477153,41 43,40.5522847 43,40 C43,39.4477153 43.4477153,39 44,39 L54,39 C54.5522847,39 55,39.4477153 55,40 C55,40.5522847 54.5522847,41 54,41 Z" id="Shape" fill="#2C3E50"></path>
            <path d="M40,21 L38,21 C37.4477153,21 37,20.5522847 37,20 C37,19.4477153 37.4477153,19 38,19 L40,19 L40,13 L38,13 C37.4477153,13 37,12.5522847 37,12 C37,11.4477153 37.4477153,11 38,11 L40,11 C41.1045695,11 42,11.8954305 42,13 L42,19 C42,20.1045695 41.1045695,21 40,21 Z" id="Shape" fill="#2C3E50"></path>
            <path d="M20,21 L18,21 C16.8954305,21 16,20.1045695 16,19 L16,13 C16,11.8954305 16.8954305,11 18,11 L20,11 C20.5522847,11 21,11.4477153 21,12 C21,12.5522847 20.5522847,13 20,13 L18,13 L18,19 L20,19 C20.5522847,19 21,19.4477153 21,20 C21,20.5522847 20.5522847,21 20,21 Z" id="Shape" fill="#2C3E50"></path>
        </g>
    </g>
</svg>