<?xml version="1.0" encoding="UTF-8"?>
<svg width="58px" height="58px" viewBox="0 0 58 58" version="1.1" xmlns="http://www.w3.org/2000/svg" xmlns:xlink="http://www.w3.org/1999/xlink">
    <!-- Generator: Sketch 51.3 (57544) - http://www.bohemiancoding.com/sketch -->
    <title>001 - Database Programming</title>
    <desc>Created with Sketch.</desc>
    <defs></defs>
    <g id="Page-1" stroke="none" stroke-width="1" fill="none" fill-rule="evenodd">
        <g id="001---Database-Programming" fill-rule="nonzero">
            <path d="M26,50 L26,56 C26.0032948,57.1032019 26.8967981,57.9967052 28,58 L39,58 C40.1032019,57.9967052 40.9967052,57.1032019 41,56 L41,36 C40.9967052,34.8967981 40.1032019,34.0032948 39,34 L28,34 C26.8967981,34.0032948 26.0032948,34.8967981 26,36 L26,50 Z" id="Shape" fill="#BDC3C7"></path>
            <path d="M4.4408921e-16,50 L4.4408921e-16,56 C0.00329480111,57.1032019 0.896798134,57.9967052 2,58 L13,58 C14.1032019,57.9967052 14.9967052,57.1032019 15,56 L15,36 C14.9967052,34.8967981 14.1032019,34.0032948 13,34 L2,34 C0.896798134,34.0032948 0.00329480111,34.8967981 0,36 L4.4408921e-16,50 Z" id="Shape" fill="#BDC3C7"></path>
            <path d="M4.4408921e-16,16 L4.4408921e-16,22 C0.00329480111,23.1032019 0.896798134,23.9967052 2,24 L13,24 C14.1032019,23.9967052 14.9967052,23.1032019 15,22 L15,2 C14.9967052,0.896798134 14.1032019,0.00329480111 13,0 L2,0 C0.896798134,0.00329480111 0.00329480111,0.896798134 0,2 L4.4408921e-16,16 Z" id="Shape" fill="#BDC3C7"></path>
            <path d="M7,28 C6.44771525,28 6,27.5522847 6,27 L6,24 C6,23.4477153 6.44771525,23 7,23 C7.55228475,23 8,23.4477153 8,24 L8,27 C8,27.5522847 7.55228475,28 7,28 Z" id="Shape" fill="#35495E"></path>
            <path d="M7,35 C6.44771525,35 6,34.5522847 6,34 L6,31 C6,30.4477153 6.44771525,30 7,30 C7.55228475,30 8,30.4477153 8,31 L8,34 C8,34.5522847 7.55228475,35 7,35 Z" id="Shape" fill="#35495E"></path>
            <path d="M18,47 L15,47 C14.4477153,47 14,46.5522847 14,46 C14,45.4477153 14.4477153,45 15,45 L18,45 C18.5522847,45 19,45.4477153 19,46 C19,46.5522847 18.5522847,47 18,47 Z" id="Shape" fill="#35495E"></path>
            <path d="M26,47 L23,47 C22.4477153,47 22,46.5522847 22,46 C22,45.4477153 22.4477153,45 23,45 L26,45 C26.5522847,45 27,45.4477153 27,46 C27,46.5522847 26.5522847,47 26,47 Z" id="Shape" fill="#35495E"></path>
            <path d="M18,13 L15,13 C14.4477153,13 14,12.5522847 14,12 C14,11.4477153 14.4477153,11 15,11 L18,11 C18.5522847,11 19,11.4477153 19,12 C19,12.5522847 18.5522847,13 18,13 Z" id="Shape" fill="#35495E"></path>
            <path d="M26,13 L23,13 C22.4477153,13 22,12.5522847 22,12 C22,11.4477153 22.4477153,11 23,11 L26,11 C26.5522847,11 27,11.4477153 27,12 C27,12.5522847 26.5522847,13 26,13 Z" id="Shape" fill="#35495E"></path>
            <path d="M44,47 L41,47 C40.4477153,47 40,46.5522847 40,46 C40,45.4477153 40.4477153,45 41,45 L44,45 C44.5522847,45 45,45.4477153 45,46 C45,46.5522847 44.5522847,47 44,47 Z" id="Shape" fill="#35495E"></path>
            <path d="M48,47 C47.4477153,47 47,46.5522847 47,46 C47,45.4477153 47.4477153,45 48,45 C48.5522847,45 49,44.5522847 49,44 C49,43.4477153 49.4477153,43 50,43 C50.5522847,43 51,43.4477153 51,44 C51,45.6568542 49.6568542,47 48,47 Z" id="Shape" fill="#35495E"></path>
            <path d="M50,41 C49.4477153,41 49,40.5522847 49,40 L49,38 C49,37.4477153 49.4477153,37 50,37 C50.5522847,37 51,37.4477153 51,38 L51,40 C51,40.5522847 50.5522847,41 50,41 Z" id="Shape" fill="#35495E"></path>
            <path d="M50,34 C49.4477153,34 49,33.5522847 49,33 L49,26 C49,25.4477153 49.4477153,25 50,25 C50.5522847,25 51,25.4477153 51,26 L51,33 C51,33.5522847 50.5522847,34 50,34 Z" id="Shape" fill="#35495E"></path>
            <path d="M58,2 L58,10 L26,10 L26,2 C26.0032948,0.896798134 26.8967981,0.00329480111 28,0 L56,0 C57.1032019,0.00329480111 57.9967052,0.896798134 58,2 Z" id="Shape" fill="#2C3E50"></path>
            <path d="M58,8 L58,24 C57.9967052,25.1032019 57.1032019,25.9967052 56,26 L28,26 C26.8967981,25.9967052 26.0032948,25.1032019 26,24 L26,8 L58,8 Z" id="Shape" fill="#B0D3F0"></path>
            <rect id="Rectangle-path" fill="#95A5A5" x="0" y="42" width="15" height="8"></rect>
            <rect id="Rectangle-path" fill="#95A5A5" x="0" y="8" width="15" height="8"></rect>
            <rect id="Rectangle-path" fill="#95A5A5" x="26" y="42" width="15" height="8"></rect>
            <circle id="Oval" fill="#547580" cx="4" cy="12" r="1"></circle>
            <circle id="Oval" fill="#547580" cx="4" cy="20" r="1"></circle>
            <circle id="Oval" fill="#547580" cx="4" cy="4" r="1"></circle>
            <circle id="Oval" fill="#CC4B4C" cx="30" cy="4" r="1"></circle>
            <circle id="Oval" fill="#F0C419" cx="34" cy="4" r="1"></circle>
            <circle id="Oval" fill="#4FBA6F" cx="38" cy="4" r="1"></circle>
            <circle id="Oval" fill="#547580" cx="4" cy="46" r="1"></circle>
            <circle id="Oval" fill="#547580" cx="4" cy="54" r="1"></circle>
            <circle id="Oval" fill="#547580" cx="4" cy="38" r="1"></circle>
            <circle id="Oval" fill="#547580" cx="30" cy="46" r="1"></circle>
            <circle id="Oval" fill="#547580" cx="30" cy="54" r="1"></circle>
            <circle id="Oval" fill="#547580" cx="30" cy="38" r="1"></circle>
            <path d="M30,23 C29.6154566,23.0001443 29.2648953,22.7797734 29.0983181,22.4331819 C28.9317409,22.0865903 28.9786603,21.6751841 29.219,21.375 L32.719,17 L29.219,12.625 C28.995709,12.3459756 28.9382374,11.969022 29.0682341,11.6361342 C29.1982309,11.3032463 29.4959464,11.0649976 29.8492341,11.0111342 C30.2025219,10.9572707 30.557709,11.0959756 30.781,11.375 L34.781,16.375 C35.0735003,16.7403328 35.0735003,17.2596672 34.781,17.625 L30.781,22.625 C30.5911385,22.8621369 30.3037783,23.000114 30,23 Z" id="Shape" fill="#2C3E50"></path>
            <path d="M43,23 L35,23 C34.4477153,23 34,22.5522847 34,22 C34,21.4477153 34.4477153,21 35,21 L43,21 C43.5522847,21 44,21.4477153 44,22 C44,22.5522847 43.5522847,23 43,23 Z" id="Shape" fill="#2C3E50"></path>
        </g>
    </g>
</svg>